<?xml version="1.0" encoding="utf-8"?>
<!-- Uploaded to: SVG Repo, www.svgrepo.com, Generator: SVG Repo Mixer Tools -->
<svg width="800px" height="800px" viewBox="0 0 1024 1024" class="icon"  version="1.1" xmlns="http://www.w3.org/2000/svg"><path d="M700.885333 195.797333c-17.984 21.589333 6.549333 73.194667 0 104.96-8.746667 42.282667-41.962667 62.933333-20.992 83.925334 11.114667 11.114667 42.304 43.776 171.178667 79.168 10.816-99.328-21.717333-202.538667-97.706667-278.549334a344.149333 344.149333 0 0 0-16.682666-15.466666c-10.666667 4.629333-24.170667 12.010667-35.797334 25.962666zM239.146667 447.658667c32.064-8.106667 73.493333-29.525333 83.968-83.946667 6.954667-36.202667 1.664-85.632 20.992-104.96 25.685333-25.664 97.493333 27.306667 146.901333 20.992 43.690667-5.568 66.56-70.016 72.896-95.061333 6.421333-25.493333 4.864-67.968 1.770667-94.890667-104.298667-16.490667-214.826667 15.296-295.04 95.509333C198.186667 257.749333 165.269333 354.944 171.733333 449.92c22.272 1.792 54.634667 0.96 67.456-2.261333z" fill="#72C472" /><path d="M851.072 463.850667c-128.874667-35.392-160.064-68.053333-171.178667-79.146667-20.970667-20.992 12.266667-41.664 20.992-83.968 6.549333-31.744-17.984-83.349333 0-104.938667 11.626667-13.952 25.130667-21.333333 35.797334-25.962666a339.285333 339.285333 0 0 0-171.008-80.042667c3.093333 26.922667 4.650667 69.397333-1.770667 94.890667-6.336 25.045333-29.205333 89.493333-72.896 95.061333-49.429333 6.336-121.216-46.656-146.901333-20.970667-19.328 19.328-14.037333 68.736-20.992 104.938667-10.453333 54.4-51.904 75.84-83.946667 83.946667-12.8 3.221333-45.184 4.053333-67.456 2.261333a339.797333 339.797333 0 0 0 98.922667 218.112c133.098667 133.077333 349.653333 133.077333 482.730666 0a339.626667 339.626667 0 0 0 97.706667-204.16zM386.069333 594.56c-10.496-52.48 54.229333-43.733333 107.264-148.629333 22.186667-43.882667 95.850667-30.08 136.426667 10.496 40.576 40.554667 44.8 101.184 10.496 136.405333-63.850667 65.6-241.344 65.92-254.186667 1.728z" fill="#BADEFC" /><path d="M629.76 456.426667c-40.576-40.576-114.24-54.4-136.426667-10.496-53.034667 104.917333-117.76 96.170667-107.264 148.629333 12.842667 64.192 190.336 63.872 254.186667-1.706667 34.304-35.242667 30.08-95.872-10.496-136.426666z" fill="#72C472" /><path d="M960 426.496a445.738667 445.738667 0 0 0-116.608-301.077333l67.690667-67.669334a21.333333 21.333333 0 1 0-30.186667-30.186666l-67.84 67.84a453.162667 453.162667 0 0 0-56.682667-43.968 21.333333 21.333333 0 1 0-23.317333 35.712C848.426667 162.410667 917.333333 289.28 917.333333 426.496 917.333333 649.898667 735.509333 832 512 832a405.248 405.248 0 0 1-285.866667-118.506667c-0.170667-0.170667-0.213333-0.426667-0.384-0.597333-0.170667-0.149333-0.384-0.213333-0.554666-0.341333a408.533333 408.533333 0 0 1-46.933334-56.384 21.333333 21.333333 0 1 0-35.136 24.234666c11.562667 16.725333 24.213333 32.426667 37.717334 47.232l-67.946667 67.925334a21.333333 21.333333 0 1 0 30.186667 30.186666l67.946666-67.968A447.68 447.68 0 0 0 490.666667 873.301333V960h-149.333334a21.333333 21.333333 0 0 0 0 42.666667h341.333334a21.333333 21.333333 0 0 0 0-42.666667h-149.333334v-86.762667c237.098667-11.242667 426.666667-207.018667 426.666667-446.741333z" fill="#A67C52" /></svg>